<svg
    width="42"
    height="43"
    fill="none"
    xmlns="http://www.w3.org/2000/svg"

>
    <path
        fill-rule="evenodd"
        clip-rule="evenodd"
        d="M41.99 21.513c0 11.348-9.396 20.548-20.988 20.548C9.41 42.06.013 32.86.013 21.513.013 10.165 9.41.966 21.002.966s20.989 9.2 20.989 20.547zm-31.435 8.434c.953.267 1.94.398 2.93.39 1.54.066 3.076-.192 4.505-.757 2.453-1.066 3.485-3.083 3.833-5.55.035-.256-.11-.232-.235-.21-.033.005-.064.01-.09.01h-3.801c-.32-.004-.433.085-.514.394-.447 1.694-1.547 2.428-3.35 2.212a1.538 1.538 0 01-1.104-.471 1.478 1.478 0 01-.402-1.113c-.004-.21.008-.42.036-.628l.197-1.172c.272-1.622.54-3.225.853-4.834.348-1.76 1.497-2.591 3.301-2.459a7.086 7.086 0 002.813-.385 6.986 6.986 0 002.422-1.455c.23-.194.19-.309 0-.495a4.601 4.601 0 00-1.669-1.061 10.79 10.79 0 00-4.923-.38c-3.305.362-5.564 2.255-6.313 5.421-.278 1.177-.488 2.378-.697 3.57-.107.605-.212 1.208-.326 1.804a13.922 13.922 0 00-.365 3.512c.121 1.888 1.064 3.087 2.899 3.657zM24.41 19.249c-1.497 1.41-3.363 1.65-5.266 1.809-.16.013-.32.02-.48.026-.162.007-.322.014-.48.027-.316.027-.424 0-.357-.363.23-1.185.451-2.379.64-3.573.043-.254.185-.258.362-.262l.09-.003a6.645 6.645 0 003.778-1.248 5.876 5.876 0 002.083-2.985.436.436 0 01.185-.307.455.455 0 01.356-.073h4.4c.38 0 .416.11.357.442a7348.037 7348.037 0 00-3.062 17.124c-.058.328-.17.412-.496.407h-3.755c-.348 0-.451-.057-.366-.442.55-2.822 1.086-5.65 1.62-8.476l.355-1.873c.014-.049.023-.12.036-.23zm4.617 11.008h2.286c.767 0 1.53 0 2.314.008.351 0 .468-.119.518-.442a149.3 149.3 0 01.645-3.799c.054-.314-.068-.34-.33-.34h-4.626c-.324 0-.405.115-.45.376-.096.515-.186 1.03-.277 1.546-.13.749-.262 1.497-.409 2.244-.063.318-.018.407.33.407z"
        fill="#5cfda2"
    ></path>
</svg>
